<?xml version="1.0" encoding="UTF-8"?>
<!-- Generator: Adobe Illustrator 22.1.0, SVG Export Plug-In . SVG Version: 6.00 Build 0)  -->
<svg version="1.1" id="Layer_1" xmlns="http://www.w3.org/2000/svg" xmlns:xlink="http://www.w3.org/1999/xlink" x="0px" y="0px" viewBox="0 0 701 224" style="enable-background:new 0 0 701 224;" xml:space="preserve">
<style type="text/css">
	.st0{filter:url(#Adobe_OpacityMaskFilter);}
	.st1{fill:#FFFFFF;}
	.st2{mask:url(#b_1_);fill:#7E4C97;}
	.st3{filter:url(#Adobe_OpacityMaskFilter_1_);}
	.st4{mask:url(#d_1_);fill:#774896;}
	.st5{filter:url(#Adobe_OpacityMaskFilter_2_);}
	.st6{mask:url(#f_1_);fill:#EDC65D;}
	.st7{filter:url(#Adobe_OpacityMaskFilter_3_);}
	.st8{mask:url(#h_1_);fill:#7E4C97;}
	.st9{filter:url(#Adobe_OpacityMaskFilter_4_);}
	.st10{mask:url(#j_1_);fill:#7E4C97;}
	.st11{fill:#774896;}
	.st12{filter:url(#Adobe_OpacityMaskFilter_5_);}
	.st13{mask:url(#l_1_);fill:#D5B256;}
	.st14{filter:url(#Adobe_OpacityMaskFilter_6_);}
	.st15{mask:url(#n_1_);fill:#ECECEB;}
	.st16{fill:#553478;}
	.st17{fill:#684389;}
</style>
<g>
	<g transform="translate(0 141.653)">
		<defs>
			<filter id="Adobe_OpacityMaskFilter" filterUnits="userSpaceOnUse" x="0" y="0" width="185.6" height="81.8">
				<feColorMatrix type="matrix" values="1 0 0 0 0  0 1 0 0 0  0 0 1 0 0  0 0 0 1 0"/>
			</filter>
		</defs>
		<mask maskUnits="userSpaceOnUse" x="0" y="0" width="185.6" height="81.8" id="b_1_">
			<g class="st0">
				<path id="a_1_" class="st1" d="M0,0.1h185.6v81.8H0V0.1z"/>
			</g>
		</mask>
		<path class="st2" d="M0,81.9h185.6C148.6,32.2,89.4,0,22.6,0C15,0,7.4,0.5,0,1.3V81.9z"/>
	</g>
	<g transform="translate(17.386 141.653)">
		<defs>
			<filter id="Adobe_OpacityMaskFilter_1_" filterUnits="userSpaceOnUse" x="0.1" y="0" width="168.1" height="81.8">
				<feColorMatrix type="matrix" values="1 0 0 0 0  0 1 0 0 0  0 0 1 0 0  0 0 0 1 0"/>
			</filter>
		</defs>
		<mask maskUnits="userSpaceOnUse" x="0.1" y="0" width="168.1" height="81.8" id="d_1_">
			<g class="st3">
				<path id="c_1_" class="st1" d="M0.1,0.1h168.1v81.8H0.1V0.1z"/>
			</g>
		</mask>
		<path class="st4" d="M40.7,10c34.1,15.6,55.5,45.1,54.6,71.9h72.9C131.2,32.2,72,0,5.2,0c-1.7,0-3.4,0-5.2,0.1    C13.2,0.6,27.1,3.8,40.7,10"/>
	</g>
	<g transform="translate(86.57 82)">
		<defs>
			<filter id="Adobe_OpacityMaskFilter_2_" filterUnits="userSpaceOnUse" x="13.4" y="60.3" width="21.9" height="23.2">
				<feColorMatrix type="matrix" values="1 0 0 0 0  0 1 0 0 0  0 0 1 0 0  0 0 0 1 0"/>
			</filter>
		</defs>
		<mask maskUnits="userSpaceOnUse" x="13.4" y="60.3" width="21.9" height="23.2" id="f_1_">
			<g class="st5">
				<path id="e_1_" class="st1" d="M79.9,0.1L0.1,9.9l9.9,80.1l79.8-9.8"/>
			</g>
		</mask>
		<path class="st6" d="M30.9,62.7c4.2,3.2,6,9.2,2.8,13.3c-3.3,4.2-14,9.7-18.1,6.4c-4.2-3.2-1.4-14.9,1.9-19.1    C20.7,59.2,26.7,59.5,30.9,62.7"/>
	</g>
	<g transform="translate(86.57 82)">
		<defs>
			<filter id="Adobe_OpacityMaskFilter_3_" filterUnits="userSpaceOnUse" x="45.8" y="47.6" width="23.7" height="33.8">
				<feColorMatrix type="matrix" values="1 0 0 0 0  0 1 0 0 0  0 0 1 0 0  0 0 0 1 0"/>
			</filter>
		</defs>
		<mask maskUnits="userSpaceOnUse" x="45.8" y="47.6" width="23.7" height="33.8" id="h_1_">
			<g class="st7">
				<path id="g_1_" class="st1" d="M79.9,0.1L0.1,9.9l9.9,80.1l79.8-9.8"/>
			</g>
		</mask>
		<path class="st8" d="M67.2,47.6c7,10.9-3.3,39.6-10.6,32.7c-2.9-2.8-3.4-7.7-10.8-13.3c0,0,2.5,0.1,5-2.8    C56.8,58.3,67.2,47.6,67.2,47.6"/>
	</g>
	<g transform="translate(86.57 82)">
		<defs>
			<filter id="Adobe_OpacityMaskFilter_4_" filterUnits="userSpaceOnUse" x="5.4" y="24.3" width="33.4" height="26.3">
				<feColorMatrix type="matrix" values="1 0 0 0 0  0 1 0 0 0  0 0 1 0 0  0 0 0 1 0"/>
			</filter>
		</defs>
		<mask maskUnits="userSpaceOnUse" x="5.4" y="24.3" width="33.4" height="26.3" id="j_1_">
			<g class="st9">
				<path id="i_1_" class="st1" d="M79.9,0.1L0.1,9.9l9.9,80.1l79.8-9.8"/>
			</g>
		</mask>
		<path class="st10" d="M38.7,25C25.5,20.8-1.9,38,7.2,43.3c3.7,2.2,9,1.4,16.7,7.3c0,0-0.8-2.4,1.6-5.6C30.2,37.7,38.7,25,38.7,25"/>
	</g>
	<path class="st11" d="M119.4,106.4l-0.5,0c-2.4,3.7-8.1,13-11.6,18.8c-1.5,2.1-1.9,4.2-1.9,5.2c0.9,0.5,1.5,0.9,2.4,1.5   c0.1-1,1-2.8,2.2-4.5c4.4-7.4,12.8-20.8,12.8-20.8C121.8,106.3,120.2,106.4,119.4,106.4 M152.9,129.9c-1.5,1.6-10.8,11.7-16.4,17.4   c-1.8,2.2-3.6,2.7-4.5,2.9c0.9,0.7,1.8,1.5,2.6,2.3c0.8-0.1,2.8-0.6,4.7-2.9c4.7-4.8,12-12.4,15.2-15.8c-0.4-1.4-0.9-2.6-1.5-3.7   L152.9,129.9L152.9,129.9z"/>
	<g transform="translate(86.57 82)">
		<defs>
			<filter id="Adobe_OpacityMaskFilter_5_" filterUnits="userSpaceOnUse" x="21.7" y="60.3" width="13.6" height="10.9">
				<feColorMatrix type="matrix" values="1 0 0 0 0  0 1 0 0 0  0 0 1 0 0  0 0 0 1 0"/>
			</filter>
		</defs>
		<mask maskUnits="userSpaceOnUse" x="21.7" y="60.3" width="13.6" height="10.9" id="l_1_">
			<g class="st12">
				<path id="k_1_" class="st1" d="M79.9,0.1L0.1,9.9l9.9,80.1l79.8-9.8"/>
			</g>
		</mask>
		<path class="st13" d="M21.7,60.6c0.8,2.3,2.7,4.8,5.5,7c2.8,2.2,5.7,3.4,8.1,3.6c0-3.2-1.7-6.4-4.4-8.5    C28.2,60.6,24.7,59.8,21.7,60.6"/>
	</g>
	<g transform="translate(86.57 82)">
		<defs>
			<filter id="Adobe_OpacityMaskFilter_6_" filterUnits="userSpaceOnUse" x="20.6" y="0.7" width="59.7" height="69.9">
				<feColorMatrix type="matrix" values="1 0 0 0 0  0 1 0 0 0  0 0 1 0 0  0 0 0 1 0"/>
			</filter>
		</defs>
		<mask maskUnits="userSpaceOnUse" x="20.6" y="0.7" width="59.7" height="69.9" id="n_1_">
			<g class="st14">
				<path id="m_1_" class="st1" d="M79.9,0.1L0.1,9.9l9.9,80.1l79.8-9.8"/>
			</g>
		</mask>
		<path class="st15" d="M79.3,0.9C81.4,2.4,81.8,29,66.1,49c-9.7,12.4-16.6,17.6-18.2,19.3c-4.6,2.8-7.7,4.4-18.5-4    c-10.8-8.4-9.3-11.3-7.7-16.1c1.4-2,4.9-9.9,14.6-22.3C52,5.9,77.1-0.6,79.3,0.9"/>
	</g>
	<path class="st16" d="M150.7,102.9l-2.9,16.5l-3.5-2.7l1.5-8.5l-7.8,3.7l-3.5-2.7l15.2-7.1L150.7,102.9z"/>
	<path class="st17" d="M129.4,214c-1.3,0-2.4-1.1-2.4-2.4c0-1.3,1.1-2.4,2.4-2.4l0,0c1.3,0,2.4,1.1,2.4,2.4   C131.8,212.9,130.7,214,129.4,214 M48.9,198.6l-33.1-0.4c-1.3,0-2.4,1-2.4,2.3c0,1.3,1,2.4,2.3,2.4l33.1,0.4c1.3,0,2.4-1,2.4-2.3   C51.2,199.7,50.2,198.6,48.9,198.6 M89.9,181.3L48,180.8c-1.3,0-2.4,1-2.4,2.3c0,1.3,1,2.4,2.3,2.4l41.9,0.5c1.3,0,2.4-1,2.4-2.3   C92.3,182.4,91.2,181.3,89.9,181.3 M119.9,209.2l-41.9-0.5c-1.3,0-2.4,1-2.4,2.3c0,1.3,1,2.4,2.3,2.4l41.9,0.5c1.3,0,2.4-1,2.4-2.3   C122.2,210.3,121.2,209.2,119.9,209.2 M45.6,164.4l-23.5-0.3c-1.3,0-2.4,1-2.4,2.3c0,1.3,1,2.4,2.3,2.4l23.5,0.3   c1.3,0,2.4-1,2.4-2.3C48,165.5,46.9,164.4,45.6,164.4 M37.3,152.2l-6.6-0.1c-1.3,0-2.4,1-2.4,2.3c0,1.3,1,2.4,2.3,2.4l6.6,0.1   c1.3,0,2.4-1,2.4-2.3C39.7,153.2,38.6,152.2,37.3,152.2"/>
</g>
</svg>